<svg xmlns="http://www.w3.org/2000/svg" viewBox="0 0 426.667 240" width="1706.668" height="960">
<title>KAJO hero - boot splash scene, 16:9</title>
<defs><filter id="glow" x="-20%" y="-20%" width="140%" height="140%"><feGaussianBlur stdDeviation="1.6"/></filter></defs><rect width="426.667" height="240" fill="#000000"/><g transform="translate(213.333 60) scale(1.1)"><g filter="url(#glow)" opacity="0.9"><path fill="#d86200" d="M-30.406,30.406 A43,43 0 1 1 30.406,30.406 L29.345,29.345 A41.5,41.5 0 1 0 -29.345,29.345 Z"/><path fill="#ff7900" d="M-25.456,25.456 A36,36 0 1 1 25.456,25.456 L19.799,19.799 A28,28 0 1 0 -19.799,19.799 Z"/></g><path fill="#d86200" d="M-30.406,30.406 A43,43 0 1 1 30.406,30.406 L29.345,29.345 A41.5,41.5 0 1 0 -29.345,29.345 Z"/><path fill="#ff7900" d="M-25.456,25.456 A36,36 0 1 1 25.456,25.456 L19.799,19.799 A28,28 0 1 0 -19.799,19.799 Z"/><path fill="#ffffff" d="M5.3,-22.4 L-15.93,7.5 L-4.4,7.5 L-8.8,30.3 L14.9,-3.1 L1.57,-3.1 Z"/></g><g transform="translate(102.333 108) scale(0.949)"><path fill="#ffffff" fill-rule="evenodd" d="M0,0 L16,0 L16,16.625 L37,0 L55,0 L31,19 L55,38 L37,38 L16,21.375 L16,38 L0,38 Z M60,38 L85,0 L103,0 L128,38 L112,38 L94,10.64 L76,38 Z M154,0 H170 V24 A14,14 0 0 1 156,38 H134 V27 H148 A6,6 0 0 0 154,21 Z M190,0 H221 A13,13 0 0 1 234,13 V25 A13,13 0 0 1 221,38 H190 A13,13 0 0 1 177,25 V13 A13,13 0 0 1 190,0 Z M197,11 H214 A4,4 0 0 1 218,15 V23 A4,4 0 0 1 214,27 H197 A4,4 0 0 1 193,23 V15 A4,4 0 0 1 197,11 Z"/><path fill="#ff7900" d="M84,38 L94,22.8 L104,38 Z"/></g><path fill="#52555a" d="M53.25,146 L24.25,131 L-5.75,150 L-34.75,139 L-61.75,152 L-94.75,126 L-128.75,148 L-153.75,137 L-183.75,153 L-210.75,129 L-243.75,149 L-276.75,135 L-276.75,185 L53.25,185 Z"/><path fill="#171a1d" d="M53.25,153 L24.25,132 L-5.75,157 L-34.75,140 L-61.75,160 L-94.75,127 L-128.75,155 L-153.75,138 L-183.75,161 L-210.75,130 L-243.75,156 L-276.75,136 L-276.75,185 L53.25,185 Z"/><path fill="#44484d" d="M24.25,132 L36.25,151 L32.25,146 L54.25,168 L41.25,155 Z"/><path fill="#44484d" d="M-34.75,140 L-22.75,159 L-26.75,154 L-4.75,176 L-17.75,163 Z"/><path fill="#44484d" d="M-94.75,127 L-82.75,146 L-86.75,141 L-64.75,163 L-77.75,150 Z"/><path fill="#44484d" d="M-153.75,138 L-141.75,157 L-145.75,152 L-123.75,174 L-136.75,161 Z"/><path fill="#44484d" d="M-210.75,130 L-198.75,149 L-202.75,144 L-180.75,166 L-193.75,153 Z"/><path fill="#44484d" d="M-276.75,136 L-264.75,155 L-268.75,150 L-246.75,172 L-259.75,159 Z"/><path fill="#52555a" d="M372.25,146 L402.25,130 L432.25,149 L467.25,139 L492.25,154 L526.25,128 L557.25,151 L586.25,136 L617.25,153 L652.25,132 L683.25,149 L712.25,138 L712.25,185 L372.25,185 Z"/><path fill="#171a1d" d="M372.25,153 L402.25,131 L432.25,155 L467.25,140 L492.25,162 L526.25,129 L557.25,158 L586.25,137 L617.25,161 L652.25,133 L683.25,156 L712.25,139 L712.25,185 L372.25,185 Z"/><path fill="#44484d" d="M402.25,131 L390.25,150 L394.25,145 L372.25,167 L385.25,154 Z"/><path fill="#44484d" d="M467.25,140 L455.25,159 L459.25,154 L437.25,176 L450.25,163 Z"/><path fill="#44484d" d="M526.25,129 L514.25,148 L518.25,143 L496.25,165 L509.25,152 Z"/><path fill="#44484d" d="M586.25,137 L574.25,156 L578.25,151 L556.25,173 L569.25,160 Z"/><path fill="#44484d" d="M652.25,133 L640.25,152 L644.25,147 L622.25,169 L635.25,156 Z"/><path fill="#44484d" d="M712.25,139 L700.25,158 L704.25,153 L682.25,175 L695.25,162 Z"/><g transform="translate(53.25 0)"><polygon fill="#52555a" points="0,146 34,127 67,146 83,139 101,150 113,139 135,156 154,165 0,184"/><polygon fill="#171a1d" points="0,153 34,128 55,158 83,140 103,164 113,140 138,160 154,165 0,184"/><polygon fill="#373b40" points="34,128 46,153 36,139 49,147 67,167"/><polygon fill="#606268" points="83,140 99,159 92,154 107,171 99,168"/><polygon fill="#44484d" points="113,140 129,157 122,152 139,166 119,153"/><polygon fill="#36393d" points="0,177 38,155 65,166 94,179 0,185"/><polygon fill="#202326" points="38,155 47,169 68,178 0,185"/><polygon fill="#52555a" points="166,165 183,155 205,135 227,147 242,140 260,148 286,127 319,146 319,184"/><polygon fill="#171a1d" points="166,165 189,157 205,136 218,155 242,141 257,153 286,128 319,153 319,184"/><polygon fill="#373b40" points="205,136 194,156 203,149 187,160 196,145"/><polygon fill="#606268" points="242,141 224,160 232,151 211,164 224,148"/><polygon fill="#373b40" points="286,128 276,151 282,142 267,157 272,144"/><polygon fill="#36393d" points="248,177 281,156 319,177 319,185"/><polygon fill="#202326" points="281,156 288,167 308,178 248,181"/></g><path fill="#000000" d="M44.25,151.828 L39.976,161.096 L42.113,161.096 L37.991,169.819 L40.128,169.819 L36.617,179.088 L51.883,179.088 L48.372,169.819 L50.509,169.819 L46.387,161.096 L48.524,161.096 Z"/><path fill="#000000" d="M26.487,151.264 L22.27,160.408 L24.378,160.408 L20.312,169.014 L22.421,169.014 L18.956,178.159 L34.018,178.159 L30.554,169.014 L32.662,169.014 L28.596,160.408 L30.704,160.408 Z"/><path fill="#000000" d="M10.262,158.654 L6.97,165.791 L8.616,165.791 L5.442,172.508 L7.088,172.508 L4.384,179.646 L16.139,179.646 L13.436,172.508 L15.081,172.508 L11.907,165.791 L13.553,165.791 Z"/><path fill="#000000" d="M-1.9,151.819 L-6.089,160.903 L-3.995,160.903 L-8.034,169.453 L-5.94,169.453 L-9.381,178.537 L5.581,178.537 L2.14,169.453 L4.234,169.453 L0.195,160.903 L2.289,160.903 Z"/><path fill="#000000" d="M381.25,156.038 L377.955,163.181 L379.603,163.181 L376.426,169.905 L378.073,169.905 L375.367,177.049 L387.133,177.049 L384.427,169.905 L386.074,169.905 L382.897,163.181 L384.545,163.181 Z"/><path fill="#000000" d="M395.607,158.487 L392.275,165.712 L393.941,165.712 L390.728,172.511 L392.394,172.511 L389.658,179.735 L401.557,179.735 L398.82,172.511 L400.486,172.511 L397.273,165.712 L398.939,165.712 Z"/><path fill="#000000" d="M408.282,151.109 L404.077,160.227 L406.179,160.227 L402.124,168.809 L404.227,168.809 L400.773,177.927 L415.791,177.927 L412.337,168.809 L414.439,168.809 L410.384,160.227 L412.487,160.227 Z"/><path fill="#000000" d="M421.166,154.003 L417.096,162.829 L419.131,162.829 L415.206,171.136 L417.241,171.136 L413.897,179.963 L428.435,179.963 L425.091,171.136 L427.126,171.136 L423.201,162.829 L425.237,162.829 Z"/><path fill="#000000" d="M433.986,155.113 L430.218,163.283 L432.102,163.283 L428.468,170.973 L430.352,170.973 L427.257,179.143 L440.714,179.143 L437.619,170.973 L439.503,170.973 L435.869,163.283 L437.753,163.283 Z"/><g transform="translate(53.25 0)"><polygon fill="#000000" points="7,151 3,160 5,160 1,168 3,168 0,178 15,178 11,168 13,168 9,160 11,160"/><polygon fill="#000000" points="18,153 15,162 17,162 13,169 15,169 11,178 25,178 21,169 23,169 19,162 21,162"/><polygon fill="#000000" points="30,150 26,160 28,160 24,168 26,168 22,178 38,178 34,168 36,168 32,160 34,160"/><polygon fill="#000000" points="42,160 40,167 41,167 38,172 40,172 37,179 47,179 44,172 46,172 43,167 44,167"/><polygon fill="#000000" points="59,155 56,164 58,164 54,171 56,171 52,180 66,180 62,171 64,171 60,164 62,164"/><polygon fill="#000000" points="77,154 74,162 76,162 72,169 74,169 70,178 84,178 80,169 82,169 78,162 80,162"/><polygon fill="#000000" points="87,161 85,167 86,167 83,173 85,173 82,179 92,179 89,173 91,173 88,167 89,167"/><polygon fill="#000000" points="99,163 97,168 98,168 96,173 97,173 95,178 103,178 101,173 102,173 100,168 101,168"/><polygon fill="#000000" points="109,164 108,168 108,168 107,172 108,172 106,176 112,176 110,172 111,172 110,168 110,168"/><polygon fill="#000000" points="119,164 118,167 118,167 117,170 118,170 116,173 122,173 120,170 121,170 120,167 120,167"/><polygon fill="#000000" points="312,151 308,160 310,160 306,168 308,168 304,178 319,178 316,168 318,168 314,160 316,160"/><polygon fill="#000000" points="301,153 298,162 300,162 296,169 298,169 294,178 308,178 304,169 306,169 302,162 304,162"/><polygon fill="#000000" points="289,150 285,160 287,160 283,168 285,168 281,178 297,178 293,168 295,168 291,160 293,160"/><polygon fill="#000000" points="277,160 275,167 276,167 273,172 275,172 272,179 282,179 279,172 281,172 278,167 279,167"/><polygon fill="#000000" points="260,155 257,164 259,164 255,171 257,171 253,180 267,180 263,171 265,171 261,164 263,164"/><polygon fill="#000000" points="242,154 239,162 241,162 237,169 239,169 235,178 249,178 245,169 247,169 243,162 245,162"/><polygon fill="#000000" points="232,161 230,167 231,167 228,173 230,173 227,179 237,179 234,173 236,173 233,167 234,167"/><polygon fill="#000000" points="220,163 218,168 219,168 217,173 218,173 216,178 224,178 222,173 223,173 221,168 222,168"/><polygon fill="#000000" points="210,164 209,168 209,168 208,172 209,172 207,176 213,176 211,172 212,172 211,168 211,168"/><polygon fill="#000000" points="200,164 199,167 199,167 198,170 199,170 197,173 203,173 201,170 202,170 201,167 201,167"/></g><path fill="#000000" d="M0,182 L207.333,165 L219.333,165 L426.667,182 L426.667,240 L0,240 Z"/><path fill="#ff7900" opacity="0.6" filter="url(#glow)" d="M208.333,165 Q133.333,180 51.333,205 L-146.667,265.39 L-146.667,283.28 L51.333,212 Q133.333,184 208.333,165.4 Z M218.333,165 Q293.333,180 375.333,205 L573.333,265.39 L573.333,283.28 L375.333,212 Q293.333,184 218.333,165.4 Z"/><path fill="#ff7900" d="M208.333,165 Q133.333,180 51.333,205 L-146.667,265.39 L-146.667,283.28 L51.333,212 Q133.333,184 208.333,165.4 Z M218.333,165 Q293.333,180 375.333,205 L573.333,265.39 L573.333,283.28 L375.333,212 Q293.333,184 218.333,165.4 Z"/><path fill="#ff7900" d="M205.208,227.5 L221.458,227.5 L218.75,206.667 L207.917,206.667 Z"/><path fill="#ff7900" d="M209.583,193.846 L217.083,193.846 L216.38,188.438 L210.287,188.438 Z"/><path fill="#ff7900" d="M210.896,183.75 L215.771,183.75 L215.453,181.304 L211.214,181.304 Z"/><path fill="#ff7900" d="M211.528,178.889 L215.139,178.889 L214.958,177.5 L211.708,177.5 Z"/><path fill="#ff7900" d="M211.9,176.029 L214.767,176.029 L214.651,175.135 L212.016,175.135 Z"/><path fill="#ff7900" d="M212.144,174.146 L214.523,174.146 L214.441,173.523 L212.226,173.523 Z"/><path fill="#ff7900" d="M212.318,172.812 L214.349,172.812 L214.289,172.353 L212.378,172.353 Z"/><path fill="#ff7900" d="M212.447,171.818 L214.22,171.818 L214.174,171.466 L212.493,171.466 Z"/><path fill="#ff7900" d="M212.547,171.048 L214.12,171.048 L214.083,170.769 L212.583,170.769 Z"/><path fill="#ff7900" d="M212.627,170.435 L214.04,170.435 L214.011,170.208 L212.656,170.208 Z"/><path fill="#ff7900" d="M212.692,169.934 L213.975,169.934 L213.951,169.747 L212.716,169.747 Z"/><path fill="#ff7900" d="M212.746,169.518 L213.921,169.518 L213.9,169.36 L212.767,169.36 Z"/><path fill="#ff7900" d="M212.792,169.167 L213.875,169.167 L213.858,169.032 L212.809,169.032 Z"/><path fill="#ff7900" d="M212.831,168.866 L213.836,168.866 L213.821,168.75 L212.846,168.75 Z"/><path fill="#ff7900" d="M212.865,168.606 L213.802,168.606 L213.789,168.505 L212.878,168.505 Z"/><path fill="#ff7900" d="M212.894,168.378 L213.773,168.378 L213.761,168.289 L212.906,168.289 Z"/><path fill="#ff7900" d="M212.92,168.178 L213.747,168.178 L213.736,168.099 L212.931,168.099 Z"/><path fill="#ff7900" d="M212.944,168 L213.723,168 L213.714,167.93 L212.953,167.93 Z"/><path fill="#ff7900" d="M212.964,167.841 L213.703,167.841 L213.695,167.778 L212.972,167.778 Z"/><path fill="#ff7900" d="M212.983,167.698 L213.684,167.698 L213.677,167.641 L212.99,167.641 Z"/><path fill="#ff7900" d="M213,167.568 L213.667,167.568 L213.661,167.517 L213.006,167.517 Z"/><path fill="#ff7900" d="M213.015,167.451 L213.652,167.451 L213.646,167.404 L213.021,167.404 Z"/><path fill="#ff7900" d="M213.029,167.344 L213.638,167.344 L213.633,167.301 L213.034,167.301 Z"/><path fill="#ff7900" d="M213.042,167.246 L213.625,167.246 L213.62,167.206 L213.047,167.206 Z"/><path fill="#ff7900" d="M213.053,167.155 L213.614,167.155 L213.609,167.119 L213.058,167.119 Z"/><path fill="#ff7900" d="M213.064,167.072 L213.603,167.072 L213.598,167.038 L213.069,167.038 Z"/><path fill="#ff7900" d="M213.074,166.995 L213.593,166.995 L213.589,166.963 L213.078,166.963 Z"/><path fill="#ff7900" d="M213.083,166.923 L213.583,166.923 L213.58,166.894 L213.087,166.894 Z"/><path fill="#ff7900" d="M213.092,166.856 L213.575,166.856 L213.571,166.829 L213.096,166.829 Z"/><path fill="#ff7900" d="M213.1,166.794 L213.567,166.794 L213.563,166.769 L213.104,166.769 Z"/><path fill="#ff7900" d="M213.108,166.736 L213.559,166.736 L213.556,166.712 L213.111,166.712 Z"/><path fill="#ff7900" d="M213.115,166.682 L213.552,166.682 L213.549,166.659 L213.118,166.659 Z"/><path fill="#ff7900" d="M213.122,166.63 L213.545,166.63 L213.543,166.609 L213.124,166.609 Z"/><path fill="#ff7900" d="M213.128,166.582 L213.539,166.582 L213.537,166.562 L213.13,166.562 Z"/><path fill="#ff7900" d="M213.134,166.537 L213.533,166.537 L213.531,166.518 L213.136,166.518 Z"/>
</svg>
